HIERARCHY
ROOT Hips
{
  OFFSET 363.916 89.4436 202.859
  CHANNELS 6 Xposition Yposition Zposition Zrotation Xrotation Yrotation
  JOINT RightUpLeg
  {
    OFFSET -9.22681 -1.41939 0.059526
    CHANNELS 3 Zrotation Xrotation Yrotation
    JOINT RightLeg
    {
      OFFSET 0.076897 -41.8891 0.179098
      CHANNELS 3 Zrotation Xrotation Yrotation
      JOINT RightFoot
      {
        OFFSET -0.0130714 -43.0092 0.527065
        CHANNELS 3 Zrotation Xrotation Yrotation
        End Site
        {
          OFFSET 0 -7.69 17.5
        }
      }
    }
  }
  JOINT LeftUpLeg
  {
    OFFSET 9.19333 -1.7604 -0.077889
    CHANNELS 3 Zrotation Xrotation Yrotation
    JOINT LeftLeg
    {
      OFFSET -0.0291634 -41.859 -0.15197
      CHANNELS 3 Zrotation Xrotation Yrotation
      JOINT LeftFoot
      {
        OFFSET 0.141288 -40.5593 0.458407
        CHANNELS 3 Zrotation Xrotation Yrotation
        End Site
        {
          OFFSET 0 -7.69 17.5
        }
      }
    }
  }
  JOINT Spine
  {
    OFFSET 0.215607 14.2961 0.04713
    CHANNELS 3 Zrotation Xrotation Yrotation
    JOINT Spine1
    {
      OFFSET 0.127345 9.70675 0.00151561
      CHANNELS 3 Zrotation Xrotation Yrotation
      JOINT Spine2
      {
        OFFSET 0.0493166 10.1169 -0.00299987
        CHANNELS 3 Zrotation Xrotation Yrotation
        JOINT Spine3
        {
          OFFSET 0.0599611 9.70888 0.0197622
          CHANNELS 3 Zrotation Xrotation Yrotation
          JOINT Neck
          {
            OFFSET 0.305156 10.372 0.0704915
            CHANNELS 3 Zrotation Xrotation Yrotation
            JOINT Head
            {
              OFFSET 0.288394 9.47974 0.0406202
              CHANNELS 3 Zrotation Xrotation Yrotation
              End Site
              {
                OFFSET 0 15.95 0
              }
            }
          }
          JOINT RightShoulder
          {
            OFFSET -3.14873 6.92098 0.0285763
            CHANNELS 3 Zrotation Xrotation Yrotation
            JOINT RightArm
            {
              OFFSET -12.7049 -0.00288304 0.0369593
              CHANNELS 3 Zrotation Xrotation Yrotation
              JOINT RightForeArm
              {
                OFFSET -26.4954 -0.160471 0.0134548
                CHANNELS 3 Zrotation Xrotation Yrotation
                JOINT RightHand
                {
                  OFFSET -26.0026 -0.0211725 -0.0218708
                  CHANNELS 3 Zrotation Xrotation Yrotation
                  JOINT RightHandThumb1
                  {
                    OFFSET -2.48905 0.190105 3.12053
                    CHANNELS 3 Zrotation Xrotation Yrotation
                    JOINT RightHandThumb2
                    {
                      OFFSET -3.68274 0 0
                      CHANNELS 3 Zrotation Xrotation Yrotation
                      JOINT RightHandThumb3
                      {
                        OFFSET -2.55832 0 0
                        CHANNELS 3 Zrotation Xrotation Yrotation
                        End Site
                        {
                          OFFSET -2.194 0 0
                        }
                      }
                    }
                  }
                  JOINT RightInHandIndex
                  {
                    OFFSET -3.22368 0.508421 1.97842
                    CHANNELS 3 Zrotation Xrotation Yrotation
                    JOINT RightHandIndex1
                    {
                      OFFSET -5.21684 -0.091368 0.999158
                      CHANNELS 3 Zrotation Xrotation Yrotation
                      JOINT RightHandIndex2
                      {
                        OFFSET -3.61937 0 0
                        CHANNELS 3 Zrotation Xrotation Yrotation
                        JOINT RightHandIndex3
                        {
                          OFFSET -2.0521 0 0
                          CHANNELS 3 Zrotation Xrotation Yrotation
                          End Site
                          {
                            OFFSET -1.805 0 0
                          }
                        }
                      }
                    }
                  }
                  JOINT RightInHandMiddle
                  {
                    OFFSET -3.38211 0.517263 0.756737
                    CHANNELS 3 Zrotation Xrotation Yrotation
                    JOINT RightHandMiddle1
                    {
                      OFFSET -5.17411 -0.084 0.313895
                      CHANNELS 3 Zrotation Xrotation Yrotation
                      JOINT RightHandMiddle2
                      {
                        OFFSET -3.94947 0 0
                        CHANNELS 3 Zrotation Xrotation Yrotation
                        JOINT RightHandMiddle3
                        {
                          OFFSET -2.47579 0 0
                          CHANNELS 3 Zrotation Xrotation Yrotation
                          End Site
                          {
                            OFFSET -1.975 0 0
                          }
                        }
                      }
                    }
                  }
                  JOINT RightInHandRing
                  {
                    OFFSET -3.36516 0.537895 -0.128947
                    CHANNELS 3 Zrotation Xrotation Yrotation
                    JOINT RightHandRing1
                    {
                      OFFSET -4.63474 -0.022105 -0.478947
                      CHANNELS 3 Zrotation Xrotation Yrotation
                      JOINT RightHandRing2
                      {
                        OFFSET -3.44238 0 0
                        CHANNELS 3 Zrotation Xrotation Yrotation
                        JOINT RightHandRing3
                        {
                          OFFSET -2.3881 0 0
                          CHANNELS 3 Zrotation Xrotation Yrotation
                          End Site
                          {
                            OFFSET -1.857 0 0
                          }
                        }
                      }
                    }
                  }
                  JOINT RightInHandPinky
                  {
                    OFFSET -3.16105 0.469368 -1.20179
                    CHANNELS 3 Zrotation Xrotation Yrotation
                    JOINT RightHandPinky1
                    {
                      OFFSET -4.14105 -0.022105 -1.09053
                      CHANNELS 3 Zrotation Xrotation Yrotation
                      JOINT RightHandPinky2
                      {
                        OFFSET -2.75653 0 0
                        CHANNELS 3 Zrotation Xrotation Yrotation
                        JOINT RightHandPinky3
                        {
                          OFFSET -1.74189 0 0
                          CHANNELS 3 Zrotation Xrotation Yrotation
                          End Site
                          {
                            OFFSET -1.645 0 0
                          }
                        }
                      }
                    }
                  }
                }
              }
            }
          }
          JOINT LeftShoulder
          {
            OFFSET 3.26342 6.92519 -0.0174379
            CHANNELS 3 Zrotation Xrotation Yrotation
            JOINT LeftArm
            {
              OFFSET 12.8742 -0.0269705 -0.0666419
              CHANNELS 3 Zrotation Xrotation Yrotation
              JOINT LeftForeArm
              {
                OFFSET 26.5114 0.000826062 -0.052783
                CHANNELS 3 Zrotation Xrotation Yrotation
                JOINT LeftHand
                {
                  OFFSET 25.9941 -0.0689373 0.00603348
                  CHANNELS 3 Zrotation Xrotation Yrotation
                  JOINT LeftHandThumb1
                  {
                    OFFSET 2.48905 0.190105 3.12053
                    CHANNELS 3 Zrotation Xrotation Yrotation
                    JOINT LeftHandThumb2
                    {
                      OFFSET 3.68274 0 0
                      CHANNELS 3 Zrotation Xrotation Yrotation
                      JOINT LeftHandThumb3
                      {
                        OFFSET 2.55832 0 0
                        CHANNELS 3 Zrotation Xrotation Yrotation
                        End Site
                        {
                          OFFSET 2.194 0 0
                        }
                      }
                    }
                  }
                  JOINT LeftInHandIndex
                  {
                    OFFSET 3.22368 0.508421 1.97842
                    CHANNELS 3 Zrotation Xrotation Yrotation
                    JOINT LeftHandIndex1
                    {
                      OFFSET 5.21684 -0.091368 0.999158
                      CHANNELS 3 Zrotation Xrotation Yrotation
                      JOINT LeftHandIndex2
                      {
                        OFFSET 3.61937 0 0
                        CHANNELS 3 Zrotation Xrotation Yrotation
                        JOINT LeftHandIndex3
                        {
                          OFFSET 2.0521 0 0
                          CHANNELS 3 Zrotation Xrotation Yrotation
                          End Site
                          {
                            OFFSET 1.805 0 0
                          }
                        }
                      }
                    }
                  }
                  JOINT LeftInHandMiddle
                  {
                    OFFSET 3.38211 0.517263 0.756737
                    CHANNELS 3 Zrotation Xrotation Yrotation
                    JOINT LeftHandMiddle1
                    {
                      OFFSET 5.17411 -0.084 0.313895
                      CHANNELS 3 Zrotation Xrotation Yrotation
                      JOINT LeftHandMiddle2
                      {
                        OFFSET 3.94947 0 0
                        CHANNELS 3 Zrotation Xrotation Yrotation
                        JOINT LeftHandMiddle3
                        {
                          OFFSET 2.47579 0 0
                          CHANNELS 3 Zrotation Xrotation Yrotation
                          End Site
                          {
                            OFFSET 1.975 0 0
                          }
                        }
                      }
                    }
                  }
                  JOINT LeftInHandRing
                  {
                    OFFSET 3.36516 0.537895 -0.128947
                    CHANNELS 3 Zrotation Xrotation Yrotation
                    JOINT LeftHandRing1
                    {
                      OFFSET 4.63474 -0.022105 -0.478947
                      CHANNELS 3 Zrotation Xrotation Yrotation
                      JOINT LeftHandRing2
                      {
                        OFFSET 3.44238 0 0
                        CHANNELS 3 Zrotation Xrotation Yrotation
                        JOINT LeftHandRing3
                        {
                          OFFSET 2.3881 0 0
                          CHANNELS 3 Zrotation Xrotation Yrotation
                          End Site
                          {
                            OFFSET 1.857 0 0
                          }
                        }
                      }
                    }
                  }
                  JOINT LeftInHandPinky
                  {
                    OFFSET 3.16105 0.469368 -1.20179
                    CHANNELS 3 Zrotation Xrotation Yrotation
                    JOINT LeftHandPinky1
                    {
                      OFFSET 4.14105 -0.022105 -1.09053
                      CHANNELS 3 Zrotation Xrotation Yrotation
                      JOINT LeftHandPinky2
                      {
                        OFFSET 2.75653 0 0
                        CHANNELS 3 Zrotation Xrotation Yrotation
                        JOINT LeftHandPinky3
                        {
                          OFFSET 1.74189 0 0
                          CHANNELS 3 Zrotation Xrotation Yrotation
                          End Site
                          {
                            OFFSET 1.645 0 0
                          }
                        }
                      }
                    }
                  }
                }
              }
            }
          }
        }
      }
    }
  }
}
MOTION
Frames: 3
Frame Time: 0.00833333
1.500008413320740317e+02 3.704271033481165731e-04 -7.513951685917368960e-04 3.171836081486160194e-03 4.758860203951978634e-04 -9.969889590541212293e-03 6.912214656569751550e-03 2.390799531925634491e-03 6.528595105072594607e-03 2.975781086912758933e-03 -1.311292025034288371e-03 1.529129658503919744e-03 7.227170399363564400e-05 -1.633279597204594005e-03 -1.074712982015387213e-03 -2.065332297246902371e-02 -7.407815936742907954e-03 5.549168970163138176e-02 7.205677314210444384e-02 2.618501348629029973e-02 -6.465186728025497376e-02 -4.547662167761966703e-03 2.681446965845778446e-03 3.275533065449207537e-04 5.113690297450596001e-03 -1.050062545568500793e-03 4.310299552941377656e-03 1.356552973475249864e-03 -3.821148685008071412e-05 -1.798320268227708335e-04 2.095933733317135658e-03 1.972807273664167261e-05 -2.904801768106784815e-04 2.617846758173138265e-05 -3.291711449595889931e-04 -1.130950376883648739e-05 3.280014333921892891e-04 -3.224070434708383327e-03 1.199370973570161938e-03 -4.338136469652889744e-03 4.042096853580019397e-03 -1.634016709231650910e-04 -6.350465573037877148e-03 1.247073479895217116e-03 7.332616827766234163e-03 -9.754321293629988204e-03 -1.249566123388263540e-02 -7.335584252569389910e-03 1.804554491835902441e-01 1.233870625516786564e-02 -8.458394396943380578e-02 7.051481957880308127e-02 1.543424625062102540e-01 1.422334166883439284e-02 0.000000000000000000e+00 0.000000000000000000e+00 0.000000000000000000e+00 -1.407956191131512896e-15 -2.476163667324071119e-15 0.000000000000000000e+00 -7.569426269769330068e-16 -1.856663681463428692e-15 0.000000000000000000e+00 -1.302006951000382702e-15 -6.408787591588066533e-16 -3.624436967732078082e-16 0.000000000000000000e+00 0.000000000000000000e+00 0.000000000000000000e+00 0.000000000000000000e+00 -9.156352492469635285e-16 -1.090318057042050161e-15 0.000000000000000000e+00 2.572914539414716981e-16 -4.362787115039295396e-16 -1.302006951000382702e-15 -6.408787591588066533e-16 -3.624436967732078082e-16 0.000000000000000000e+00 -3.252333311096369469e-16 -6.267116392692927197e-16 0.000000000000000000e+00 -7.516935447355391104e-17 -1.713499244259317714e-16 0.000000000000000000e+00 3.283888393647953539e-16 -2.286186185293134477e-15 -1.302006951000382702e-15 -6.408787591588066533e-16 -3.624436967732078082e-16 0.000000000000000000e+00 0.000000000000000000e+00 0.000000000000000000e+00 0.000000000000000000e+00 6.380881609451746963e-16 -3.249670646660412272e-16 0.000000000000000000e+00 -3.565778838670835288e-16 2.964408230288232032e-16 -1.302006951000382702e-15 -6.408787591588066533e-16 -3.624436967732078082e-16 0.000000000000000000e+00 0.000000000000000000e+00 0.000000000000000000e+00 0.000000000000000000e+00 -1.442179327545226993e-16 2.727773987084013352e-18 0.000000000000000000e+00 -1.262868044191118501e-15 -7.219057082950791151e-16 3.005417773900068840e-02 8.586492117054320486e-03 -2.608635605043713689e-03 -2.092370686650205092e-02 -3.107779628802458810e-02 1.243997026194889818e-02 1.309050887685354447e-03 3.951176322491301712e-03 -2.608096796940913287e-03 1.042030627291718999e-03 2.815383547359398553e-04 -2.231503761241231641e-03 0.000000000000000000e+00 0.000000000000000000e+00 0.000000000000000000e+00 -1.886827864146812147e-15 -2.640626091401095844e-16 0.000000000000000000e+00 -1.101135414893669457e-15 -3.901576306001767127e-16 0.000000000000000000e+00 2.415530518555069445e-15 -2.792986251355908161e-16 7.828957581212097558e-16 0.000000000000000000e+00 0.000000000000000000e+00 0.000000000000000000e+00 0.000000000000000000e+00 1.149360813553654548e-15 -1.088873824110744892e-15 0.000000000000000000e+00 1.829741015131306926e-15 4.664186064464941567e-16 2.415530518555069445e-15 -2.792986251355908161e-16 7.828957581212097558e-16 0.000000000000000000e+00 1.270520488379090713e-15 -1.084783949367956682e-15 0.000000000000000000e+00 -1.645347014337831091e-15 -1.929631489176946548e-16 0.000000000000000000e+00 -2.829559779139253565e-15 8.895702930843827585e-16 2.415530518555069445e-15 -2.792986251355908161e-16 7.828957581212097558e-16 0.000000000000000000e+00 0.000000000000000000e+00 0.000000000000000000e+00 0.000000000000000000e+00 6.690568087519898296e-17 -6.493309362508790585e-16 0.000000000000000000e+00 1.115991943004056147e-15 5.549019961408252396e-16 2.415530518555069445e-15 -2.792986251355908161e-16 7.828957581212097558e-16 0.000000000000000000e+00 0.000000000000000000e+00 0.000000000000000000e+00 0.000000000000000000e+00 -5.797986215516251344e-16 -5.909626797787492202e-16 0.000000000000000000e+00 -5.374702586789771642e-16 3.058403665327580101e-16
1.499995230951025746e+02 1.274784192078432584e-04 -1.797576012392049412e-04 -3.180801492065514231e-03 4.387124007210676667e-04 8.028720957416387097e-03 -5.971478596347426851e-03 -3.821159496087178685e-04 -6.385089036222639514e-03 -3.023709578322360345e-03 5.720302805749045202e-04 -6.219905353233969383e-04 -7.546802964422911564e-04 1.397964116001278482e-03 2.131336617050101287e-04 1.607090764092187693e-02 7.208705779997495559e-03 -4.600587445715425411e-02 -5.764113090948261298e-02 -2.143861754449749926e-02 5.346190640238587116e-02 2.890033376346955087e-03 -2.389323925505906342e-03 -1.511302757447107814e-03 -4.292703275051640462e-03 3.008745949163598148e-03 -5.852419513125639398e-03 -1.217662005006212890e-03 5.339546249010165705e-04 8.385110579157025433e-05 -1.745225399303662822e-03 7.940522836026154109e-04 1.369734374784018979e-04 -1.613882984477054059e-06 2.273845429370197416e-04 2.736857348036685203e-05 1.818671623668908187e-04 1.879825541053961949e-03 -5.679443398621543924e-04 3.684446507650611727e-03 -3.639753833549714841e-03 1.660991787693185317e-04 4.405368959879697212e-03 -3.469095179356238359e-03 -4.213559033375308127e-03 2.303475495818084820e-02 1.830646009857073847e-02 1.615152662971433908e-02 -2.050018485214094022e-01 -2.759810562399957895e-02 1.156767719321769722e-01 -6.814376885556498731e-02 -1.574496579295372178e-01 -4.681818742173131376e-02 0.000000000000000000e+00 0.000000000000000000e+00 0.000000000000000000e+00 -5.401250771280778311e-17 1.424169511198229540e-15 0.000000000000000000e+00 1.041371974348288911e-15 1.554047351372641013e-15 0.000000000000000000e+00 1.935862346101278012e-16 7.683710443665254735e-16 7.531764301961889630e-17 0.000000000000000000e+00 0.000000000000000000e+00 0.000000000000000000e+00 0.000000000000000000e+00 6.906545278225674571e-16 8.706462146701181386e-16 0.000000000000000000e+00 -2.714018297006653966e-16 2.291422678566423369e-16 1.935862346101278012e-16 7.683710443665254735e-16 7.531764301961889630e-17 0.000000000000000000e+00 5.475906170750446505e-16 -9.342450345787918630e-17 0.000000000000000000e+00 -8.849981253630248410e-17 5.284038028771536820e-16 0.000000000000000000e+00 -1.959970998562953382e-16 1.197713873614657090e-15 1.935862346101278012e-16 7.683710443665254735e-16 7.531764301961889630e-17 0.000000000000000000e+00 0.000000000000000000e+00 0.000000000000000000e+00 0.000000000000000000e+00 -2.024822860189358085e-16 4.662138894965212875e-16 0.000000000000000000e+00 6.016061015238174804e-17 -5.105629833572955875e-16 1.935862346101278012e-16 7.683710443665254735e-16 7.531764301961889630e-17 0.000000000000000000e+00 0.000000000000000000e+00 0.000000000000000000e+00 0.000000000000000000e+00 4.134811861766315469e-16 -1.430469632671698009e-17 0.000000000000000000e+00 6.766627549471197264e-16 4.324709451767878034e-16 -4.858607202230177946e-03 -1.761545401934552259e-03 1.829288806482843102e-02 1.627924892221311107e-02 1.029728636809189475e-02 -2.070685543227589187e-02 -2.173334783461121356e-03 6.464059803148144642e-03 1.039109356508007183e-02 4.421237163645037362e-03 -4.661212386976497368e-03 -1.273854893725155472e-02 0.000000000000000000e+00 0.000000000000000000e+00 0.000000000000000000e+00 2.351714708503411792e-15 2.542270442536444300e-16 0.000000000000000000e+00 1.674350177005884004e-15 8.188629772423111051e-18 0.000000000000000000e+00 -1.577191357238020722e-15 6.354167953980500069e-16 -6.383657101614025592e-16 0.000000000000000000e+00 0.000000000000000000e+00 0.000000000000000000e+00 0.000000000000000000e+00 -1.006981139619865322e-15 7.640564281304824718e-16 0.000000000000000000e+00 -1.372467366893823183e-15 -3.942485409436146218e-16 -1.577191357238020722e-15 6.354167953980500069e-16 -6.383657101614025592e-16 0.000000000000000000e+00 -1.542997940144623253e-15 9.497640944981368755e-16 0.000000000000000000e+00 1.761598671694830097e-15 3.028057758519857081e-16 0.000000000000000000e+00 2.104907092285280987e-15 -7.468713239604625713e-16 -1.577191357238020722e-15 6.354167953980500069e-16 -6.383657101614025592e-16 0.000000000000000000e+00 0.000000000000000000e+00 0.000000000000000000e+00 0.000000000000000000e+00 -4.018256433623431105e-16 3.076256554932049342e-16 0.000000000000000000e+00 -1.359596655569632964e-15 -3.912511226662674659e-16 -1.577191357238020722e-15 6.354167953980500069e-16 -6.383657101614025592e-16 0.000000000000000000e+00 0.000000000000000000e+00 0.000000000000000000e+00 0.000000000000000000e+00 7.550801961244124554e-16 2.769421648655905996e-16 0.000000000000000000e+00 6.427832205211633989e-16 -2.246884680702142889e-16
1.500003683378877213e+02 -4.902697191440995132e-04 8.894560189888424569e-04 2.098551745015492156e-03 -1.215772375810875421e-03 -5.097646813792205446e-03 3.644145610672233377e-03 -1.110710907881201420e-03 6.562446356468965881e-03 3.467235645626634555e-03 2.306061799019240403e-04 -1.114726394494160991e-03 7.954193518334175522e-04 -7.023959861336949656e-04 -9.999196663856943935e-05 -9.066156308616402093e-03 -5.636429459037936227e-03 2.629415294743558257e-02 3.276912197453887843e-02 1.178738144277643660e-02 -3.144922975865033915e-02 -1.048039921401706627e-03 2.921728484187509269e-03 2.771443438234012617e-03 2.620731419510503001e-03 -3.701396699406660652e-03 6.041093045243600516e-03 7.849774459491316424e-04 -7.537657336123559666e-04 6.905310860124600186e-05 1.021747812881055586e-03 -1.175893441886655859e-03 1.138004820624975602e-04 1.677308688674500830e-05 -1.309213424486540850e-04 -1.133826159649476334e-05 -3.452464510654486719e-04 -8.874099346560441028e-04 1.244092467714605571e-03 -2.556514099706682763e-03 2.023148740454902908e-03 6.967652636441510131e-04 -3.090986811306630812e-03 3.773301174866406250e-03 8.724806566125972154e-04 -1.604530953269296678e-02 -1.453458674628984107e-02 1.844544852576154251e-03 2.213489296761958491e-01 3.296082776135550452e-02 -1.488719138063211989e-01 6.711270828765895924e-02 1.869823072099136840e-01 6.283698852520670786e-02 0.000000000000000000e+00 0.000000000000000000e+00 0.000000000000000000e+00 1.868762603666151327e-15 -2.652433862602260814e-16 0.000000000000000000e+00 -9.196886635793624890e-16 -7.979995075660275986e-16 0.000000000000000000e+00 9.388280568367976038e-16 -7.705796177436749527e-16 1.675044458954966312e-16 0.000000000000000000e+00 0.000000000000000000e+00 0.000000000000000000e+00 0.000000000000000000e+00 -4.405965859178596550e-16 -2.631511674001719532e-16 0.000000000000000000e+00 2.503262330684134837e-16 5.545371952050871177e-17 9.388280568367976038e-16 -7.705796177436749527e-16 1.675044458954966312e-16 0.000000000000000000e+00 -6.265812316922716050e-16 7.279333614493933341e-16 0.000000000000000000e+00 3.223631012415004772e-16 -6.647594376775436791e-16 0.000000000000000000e+00 9.195340891699238518e-17 -9.061928662147999818e-17 9.388280568367976038e-16 -7.705796177436749527e-16 1.675044458954966312e-16 0.000000000000000000e+00 0.000000000000000000e+00 0.000000000000000000e+00 0.000000000000000000e+00 -1.648444262004180206e-16 -5.562993114722647282e-16 0.000000000000000000e+00 1.859609525796959494e-16 8.449108006820079316e-16 9.388280568367976038e-16 -7.705796177436749527e-16 1.675044458954966312e-16 0.000000000000000000e+00 0.000000000000000000e+00 0.000000000000000000e+00 0.000000000000000000e+00 -5.651747056718638718e-16 1.090997156366165337e-16 0.000000000000000000e+00 5.396398387143500155e-17 -1.071135955791747225e-16 -1.050645638707200201e-02 1.491174221005669336e-03 -2.698485503342539643e-02 -8.634636786287383514e-03 2.754066043544922985e-04 2.277137389823061936e-02 5.970274173808229118e-04 -6.149055464337570623e-03 -6.882041814565058833e-03 -1.581527559259236033e-03 4.148180594257712059e-03 9.388649411448386425e-03 0.000000000000000000e+00 0.000000000000000000e+00 0.000000000000000000e+00 -2.420033513318589286e-15 -9.983168787210683182e-16 0.000000000000000000e+00 -2.136317889903504914e-15 -3.412684705476076185e-16 0.000000000000000000e+00 2.311968160038169442e-16 -9.144316564356276961e-16 4.972981155845005309e-16 0.000000000000000000e+00 0.000000000000000000e+00 0.000000000000000000e+00 0.000000000000000000e+00 5.890340953501256387e-16 -4.090311202355645729e-16 0.000000000000000000e+00 7.469221461987231778e-16 3.752102073639732620e-16 2.311968160038169442e-16 -9.144316564356276961e-16 4.972981155845005309e-16 0.000000000000000000e+00 1.506390966657778406e-15 -4.396608039070068206e-16 0.000000000000000000e+00 -1.880844421435439311e-15 -2.111669205073489642e-16 0.000000000000000000e+00 -1.272465589843290367e-15 5.496961959397586892e-16 2.311968160038169442e-16 -9.144316564356276961e-16 4.972981155845005309e-16 0.000000000000000000e+00 0.000000000000000000e+00 0.000000000000000000e+00 0.000000000000000000e+00 5.168103839415405952e-16 1.530948320937739631e-16 0.000000000000000000e+00 1.605824075437236792e-15 8.883275704895453095e-17 2.311968160038169442e-16 -9.144316564356276961e-16 4.972981155845005309e-16 0.000000000000000000e+00 0.000000000000000000e+00 0.000000000000000000e+00 0.000000000000000000e+00 -8.628596736917178149e-16 -5.050224630320549738e-17 0.000000000000000000e+00 -8.109301668167011228e-16 1.335960742801908343e-16
